<svg width="36" height="31" viewBox="0 0 36 31" fill="#03DDE0" xmlns="http://www.w3.org/2000/svg">
<g clip-path="url(#clip0)">
<path d="M20.5867 9.43791C12.7923 10.1407 9.4391 18.0312 16.8592 18.8161C16.8592 18.2087 16.8927 14.573 16.8927 14.573H22.2822C22.2822 14.573 22.2906 20.0309 22.2906 22.5633C20.7753 22.9594 19.0197 23.1868 17.1483 23.1868C11.4837 23.1868 6.90149 21.1137 6.90149 15.4959C6.90149 12.3899 9.77708 6.02232 19.4303 4.29838L20.5867 9.43791Z" fill="#03DDE0"/>
<path d="M17.0622 0C7.63937 0 0 6.81944 0 15.2308C0 23.6421 7.63937 30.4615 17.0622 30.4615C26.485 30.4615 34.1244 23.6421 34.1244 15.2308C34.1244 6.81944 26.4864 0 17.0622 0ZM17.0622 25.9602C9.73007 25.9602 3.78756 20.8398 3.78756 14.5251C3.78756 8.21033 9.73147 3.08988 17.0622 3.08988C24.3929 3.08988 30.3368 8.21033 30.3368 14.5251C30.3368 20.8398 24.3943 25.9602 17.0622 25.9602Z" fill="#03DDE0"/>
<path d="M29.9698 1.45556L24.5929 7.72335L27.0425 10.197L33.471 5.05015L29.9698 1.45556Z" fill="#03DDE0"/>
<path d="M35.0141 9.9136L28.0926 12.4034C28.0926 12.4034 28.682 15.1984 28.7295 15.2306C28.7769 15.2615 36.0001 14.8947 36.0001 14.8947L35.0141 9.9136Z" fill="#03DDE0"/>
</g>
<defs>
<clipPath id="clip0">
<rect width="36" height="30.4615" fill="white"/>
</clipPath>
</defs>
</svg>
