<?xml version="1.0" encoding="UTF-8"?>
<svg id="Calque_1" data-name="Calque 1" xmlns="http://www.w3.org/2000/svg" version="1.1" viewBox="0 0 68 42">
  <defs>
    <style>
      .cls-1 {
        fill: #ff5f00;
      }

      .cls-1, .cls-2, .cls-3 {
        stroke-width: 0px;
      }

      .cls-2 {
        fill: #eb001b;
      }

      .cls-3 {
        fill: #f79e1b;
      }
    </style>
  </defs>
  <path class="cls-1" d="M40.5,9.2h-13v23.5h13V9.2Z"/>
  <path class="cls-2" d="M28.3,21c0-2.3.5-4.5,1.5-6.5,1-2,2.4-3.8,4.2-5.2-2.2-1.7-4.8-2.8-7.6-3.1-2.8-.3-5.6.2-8.1,1.4-2.5,1.2-4.6,3.1-6.1,5.5-1.5,2.4-2.3,5.1-2.3,7.9s.8,5.6,2.3,7.9c1.5,2.4,3.6,4.3,6.1,5.5,2.5,1.2,5.3,1.7,8.1,1.4,2.8-.3,5.4-1.4,7.6-3.1-1.8-1.4-3.2-3.2-4.2-5.2-1-2-1.5-4.3-1.5-6.5Z"/>
  <path class="cls-3" d="M58.1,21c0,2.8-.8,5.6-2.3,7.9-1.5,2.4-3.6,4.3-6.1,5.5-2.5,1.2-5.3,1.7-8.1,1.4-2.8-.3-5.4-1.4-7.6-3.1,1.8-1.4,3.2-3.2,4.2-5.2,1-2,1.5-4.3,1.5-6.5s-.5-4.5-1.5-6.5c-1-2-2.4-3.8-4.2-5.2,2.2-1.7,4.8-2.8,7.6-3.1,2.8-.3,5.6.2,8.1,1.4,2.5,1.2,4.6,3.1,6.1,5.5,1.5,2.4,2.3,5.1,2.3,7.9h0Z"/>
</svg>