<?xml version="1.0" encoding="UTF-8"?>
<svg id="Calque_1" data-name="Calque 1" xmlns="http://www.w3.org/2000/svg" version="1.1" viewBox="0 0 68 42">
  <defs>
    <style>
      .cls-1, .cls-2, .cls-3, .cls-4, .cls-5 {
        stroke-width: 0px;
      }

      .cls-1, .cls-5 {
        fill: #009cde;
      }

      .cls-2, .cls-3 {
        fill: #003087;
      }

      .cls-2, .cls-5 {
        fill-rule: evenodd;
      }

      .cls-4 {
        fill: #012169;
      }
    </style>
  </defs>
  <path class="cls-2" d="M18.4,28.7h2.6c.9,0,1.5.2,1.9.7.3.4.4,1,.3,1.8-.3,1.7-1.2,2.6-2.9,2.6h-.8c-.2,0-.3.1-.4.3l-.3,1.9c0,.2-.2.3-.4.3h-1.2s0,0,0,0c-.1,0-.2-.1-.2-.3l1-7c0-.2.2-.3.4-.3ZM19.7,32.2c.7,0,1.4,0,1.5-1,0-.3,0-.6-.1-.8-.2-.3-.7-.3-1.1-.3h-.2c-.1,0-.2,0-.2.2l-.3,1.8h.4Z"/>
  <path class="cls-2" d="M27.4,31.2h1.2s0,0,0,0c.1,0,.2.1.2.3l-.7,4.5c0,.2-.2.3-.4.3h-1.1s0,0,0,0c-.1,0-.2-.1-.2-.3v-.4c0,0-.6.7-1.6.7s-1.2-.2-1.5-.7c-.4-.5-.6-1.2-.5-2,.2-1.5,1.4-2.6,2.7-2.6s1.2.1,1.5.5h0c0,.1,0-.2,0-.2,0-.1.1-.2.2-.2ZM25.5,35c.7,0,1.3-.5,1.4-1.2,0-.4,0-.7-.2-.9-.2-.2-.5-.4-.8-.4-.7,0-1.3.5-1.4,1.3,0,.4,0,.7.2.9.2.2.5.4.8.4Z"/>
  <path class="cls-3" d="M33.9,31.2h1.2s0,0,.1,0c0,0,.1.2,0,.3l-4.1,6.3c0,.1-.2.2-.3.2h-1.2s0,0-.1,0c0,0-.1-.2,0-.3l1.3-1.9-1.4-4.2s0,0,0,0c0-.1,0-.2.2-.2h1.2c.2,0,.3.1.3.3l.7,2.6,1.7-2.7c0-.1.2-.2.3-.2Z"/>
  <path class="cls-5" d="M39.3,28.7h-2.6c-.2,0-.3.1-.4.3l-1,7c0,.1,0,.2.2.3,0,0,0,0,0,0h1.3c.1,0,.2,0,.2-.2l.3-2c0-.2.2-.3.4-.3h.8c1.7,0,2.7-.9,2.9-2.6.1-.8,0-1.3-.3-1.8-.4-.5-1-.7-1.9-.7h0ZM39.6,31.2c-.1,1-.8,1-1.5,1h-.4l.3-1.8c0-.1.1-.2.2-.2h.2c.5,0,.9,0,1.1.3.1.2.2.4.1.8Z"/>
  <path class="cls-5" d="M46.9,31.2h-1.2c-.1,0-.2,0-.2.2v.4c0,0-.1-.1-.1-.1-.3-.4-.9-.5-1.5-.5-1.4,0-2.5,1.1-2.7,2.6-.1.8,0,1.5.5,2,.4.5.9.7,1.5.7,1.1,0,1.7-.7,1.7-.7v.4c0,.1,0,.2.1.3,0,0,0,0,0,0h1.1c.2,0,.3-.1.4-.3l.7-4.5c0-.1,0-.2-.2-.3,0,0,0,0,0,0ZM45.2,33.7c-.1.7-.7,1.2-1.4,1.2s-.6-.1-.8-.4c-.2-.2-.3-.6-.2-.9.1-.7.7-1.3,1.4-1.3s.6.1.8.4c.2.2.3.6.2.9Z"/>
  <path class="cls-1" d="M47.3,36l1.1-7.1h0c0-.1.1-.2.2-.2h1.2s0,0,0,0c.1,0,.2.1.2.3l-1,7c0,.2-.2.3-.4.3h-1.1s0,0,0,0c-.1,0-.2-.1-.2-.3Z"/>
  <path class="cls-3" d="M31.9,10.5c0-.4.4-.7.9-.7h5.4c.6,0,1.2,0,1.8.1.3,0,.6.1.9.2.3,0,.6.2,1,.4.3-1.7,0-2.8-.9-3.9-1-1.1-2.9-1.6-5.3-1.6h-6.9c-.5,0-.9.3-1,.8l-2.9,17.7c0,.3.2.6.5.7,0,0,0,0,0,0h4.3l1.1-6.6,1.1-7.1Z"/>
  <path class="cls-1" d="M41.8,10.5c0,.1,0,.3,0,.4-.9,4.5-4,6.1-8,6.1h-2c-.5,0-.9.3-1,.8l-1,6.4-.3,1.8c0,.3.1.5.4.6,0,0,0,0,0,0h3.6c.4,0,.8-.3.9-.7v-.2s.7-4.2.7-4.2v-.2c.1-.4.5-.7.9-.7h.5c3.5,0,6.2-1.4,7-5.3.3-1.7.2-3-.7-4-.3-.3-.6-.6-1-.7Z"/>
  <path class="cls-4" d="M40.9,10.1c-.1,0-.3,0-.4-.1-.1,0-.3,0-.5,0-.5,0-1.1-.1-1.8-.1h-5.4c-.4,0-.8.3-.9.7l-1.1,7.1v.2c0-.5.5-.8.9-.8h2c4,0,7.1-1.6,8-6.1,0-.1,0-.3,0-.4-.2-.1-.5-.2-.7-.3,0,0-.1,0-.2,0"/>
</svg>