<?xml version="1.0" encoding="UTF-8"?>
<svg id="Calque_1" data-name="Calque 1" xmlns="http://www.w3.org/2000/svg" version="1.1" viewBox="0 0 68 42">
  <defs>
    <style>
      .cls-1, .cls-2 {
        fill: #a6c307;
        stroke-width: 0px;
      }

      .cls-2 {
        fill-rule: evenodd;
      }
    </style>
  </defs>
  <path class="cls-1" d="M63.6,8.8h-2.8s0,0,0,0h-.5v.4s0,0,0,0v2.4s0,0,0,0v.4h3.3v-3.3Z"/>
  <path class="cls-1" d="M59.9,8.8h-1.6c0,0-.2,0-.2,0,0,0,0-.1,0-.2v-1.6c0-.2.1-.3.3-.3h1.6c.2,0,.3.1.3.3v1.6c0,0,0,.2,0,.2,0,0-.1,0-.2,0Z"/>
  <path class="cls-1" d="M56,16.5c.1.1.3.2.4.2h1.6v6.3c0,1.3-.3,2.4-.9,3.3-1.1,1.7-3.2,2.6-6.3,2.6h0c-3,0-5.2-.9-6.3-2.6-.6-.9-.9-2-.9-3.3v-8.1c0-1.3.5-1.5,2-1.5h.5c1.4,0,2,.2,2,1.5v3.1h0v.7h0s0,0,0,0v4.3c0,.5.1.9.3,1.3.4.6,1.2.9,2.4.9,1.2,0,2-.3,2.4-.9.2-.3.3-.7.3-1.3v-4.3h0s0,0,0,0h0v-.7h0v-3.1c0-1.3.5-1.5,2-1.5h.2v2.8c0,.2,0,.3.2.4Z"/>
  <path class="cls-2" d="M12.7,13.2h3.4c3.5,0,5.2,1.6,5.2,4.9s-1.7,4.9-5.2,4.9h-4v4.6c0,.7-.2.9-.9.9h-.2c-.7,0-.9-.2-.9-.9v-11.8c0-1.8.8-2.7,2.7-2.7ZM16.1,21.2c2.6,0,3.1-1,3.1-3s-1.1-2.9-3.1-2.9h-3.1c-.7,0-.9.3-.9.9v5h4Z"/>
  <path class="cls-2" d="M23.2,16.9c.3,0,1.2-.2,2.5-.2,3.4,0,5,1.2,5,3.8v4.6c0,2.6-1.5,3.8-5,3.8s-4.5-1.3-4.5-3.6,1.6-3.5,4.9-3.5h2.6v-1.2c0-1.4-.8-2-2.9-2s-2.2.2-2.5.3c-.1,0-.3,0-.4,0-.2,0-.4,0-.5-.2,0-.1-.1-.3-.1-.6v-.2c0-.7.2-.8.8-.9ZM28.7,25v-1.6h-2.6c-2.1,0-2.9.5-2.9,1.9s.8,1.8,2.5,1.8c2.5,0,3-.8,3-2.1Z"/>
  <path class="cls-1" d="M41.5,17c.3,0,.6,0,.7.2.1.2.1.5,0,.7l-2.7,10.7c-.8,3.1-2.1,4.5-4.6,4.7,0,0-.1,0-.2,0-.5,0-.7-.3-.8-.8v-.2c0-.2-.1-.5,0-.6.1-.2.3-.2.7-.2,1.7-.2,2.2-.9,2.8-2.7-.3,0-.6.1-.9.1-1.8,0-2.3-1.3-2.8-2.8l-2.2-8.1c0-.3-.1-.6,0-.7.1-.2.4-.2.7-.2h.2c.7,0,1,.2,1.1.9l2.2,8c.3,1,.6,1.2,1.3,1.2s.9-.2,1.2-1.2l1.9-8c.2-.7.4-.9,1.1-.9h.2Z"/>
  <path class="cls-1" d="M56.4,12.2h3.2c0,0,.2,0,.2,0,0,0,.1,0,.2.1,0,0,.1.1.1.2,0,0,0,.2,0,.2v3.2c0,.2,0,.3-.2.4-.1.1-.3.2-.4.2h-1.6v-1.9c0-1.3-.5-1.5-2-1.5h-.2s0-.4,0-.4c0-.3.3-.6.6-.6Z"/>
</svg>