<?xml version="1.0" encoding="UTF-8"?>
<svg id="Calque_1" data-name="Calque 1" xmlns="http://www.w3.org/2000/svg" version="1.1" viewBox="0 0 68 42">
  <defs>
    <style>
      .cls-1 {
        fill: #e0004d;
      }

      .cls-1, .cls-2 {
        stroke-width: 0px;
      }

      .cls-2 {
        fill: #373379;
      }
    </style>
  </defs>
  <path class="cls-2" d="M10.2,17.8s-3.2.1-3.2,1.6v4.4c0,.5.4.9.9.9h1.1c.2,0,.3-.1.3-.3v-4.4c.4-.3,1-.5,2.1-.3,0,0,1.1-1.9-1.2-1.9Z"/>
  <path class="cls-2" d="M15.1,17.8s-2.7-.1-2.7,1.2c0,0,0,.9.4,1,0,0,.7-.4,2.1-.4s1.2.8,1.2.8c-4.5,0-4.1,2.3-4.1,2.3,0,2.4,3.2,2.2,3.2,2.2,2.7,0,3.1-1.2,3.1-1.2v-3.6s0-2.2-3.2-2.2ZM16.1,22.9s-.2.2-.9.2c0,0-.9,0-.9-.6,0,0,0-.7,1.8-.7v1.1Z"/>
  <path class="cls-2" d="M42.2,17.8s-2.7-.1-2.7,1.2c0,0,0,.9.4,1,0,0,.7-.4,2.1-.4s1.2.8,1.2.8c-4.5,0-4.1,2.3-4.1,2.3,0,2.4,3.2,2.2,3.2,2.2,2.7,0,3.1-1.2,3.1-1.2v-3.6s0-2.2-3.2-2.2ZM43.2,22.9s-.2.2-.9.2c0,0-.9,0-.9-.6,0,0,0-.7,1.8-.7v1.1Z"/>
  <path class="cls-2" d="M28.9,17.5c.7,0,1.3-.6,1.3-1.3s-.6-1.3-1.3-1.3-1.3.6-1.3,1.3.6,1.3,1.3,1.3Z"/>
  <path class="cls-2" d="M29.7,24.7h-1.1c-.5,0-1-.4-1-1v-5.6c0-.1,0-.2.2-.2h1.3c.5,0,.9.4.9.9v5.5c0,.2-.2.3-.3.3Z"/>
  <path class="cls-2" d="M57.7,17.8c-2.3,0-3.6,1.4-3.6,3.5s1.4,3.6,3.5,3.6h0c2.1,0,3.5-1.3,3.5-3.6s-1.3-3.5-3.6-3.5ZM57.8,23c-.7,0-1.2-.8-1.2-1.7s.5-1.7,1.2-1.7,1.2.8,1.2,1.7-.5,1.7-1.2,1.7Z"/>
  <path class="cls-1" d="M58.1,27.5c3.2,0,5-1.7,5.7-4.2,0,0,0-.1,0-.2l-1.6-.4c0,0-.2,0-.2.1-.5,1.6-1.8,2.6-3.9,2.7-.1,0-.2,0-.2.2v1.5c0,.1.1.2.2.2Z"/>
  <path class="cls-2" d="M23.3,17.8h-.5c-1.8,0-3.1.7-3.1,1.5v2h0v5c0,.5.4.9.9.9h1.1c.2,0,.4-.2.4-.4v-2.1c.3,0,.6,0,.8,0h.5c1.9,0,3.3-1.5,3.3-3.3h0v-.2h0c0-2-1.1-3.5-3.3-3.5ZM24.2,21.6c0,.8-.6,1.4-1.4,1.4h-.4c-.2,0-.4-.2-.4-.4v-2.5c0-.3.3-.4.6-.4h.2c.8,0,1.4.6,1.4,1.4v.6Z"/>
  <path class="cls-2" d="M35,17.8h-.5c-1.8,0-3.1.7-3.1,1.5v2h0v5c0,.5.4.9.9.9h1.1c.2,0,.4-.2.4-.4v-2.1c.3,0,.6,0,.8,0h.5c1.9,0,3.3-1.5,3.3-3.3h0v-.2h0c0-2-1.1-3.5-3.3-3.5ZM35.9,21.6c0,.8-.6,1.4-1.4,1.4h-.4c-.2,0-.4-.2-.4-.4v-2.5c0-.3.3-.4.6-.4h.2c.8,0,1.4.6,1.4,1.4v.6Z"/>
  <path class="cls-2" d="M50.2,17.8h-.5c-2.2,0-3.3,1.4-3.3,3.5h0v.2h0c0,1.7,1.1,3,3.3,3h.1c.2,0,.7-.1,1-.3v.6c0,.3-.2.5-.5.6,0,0,0,0,0,0,0,0,0,0,0,0-.4.1-.8.2-.8.2-1.5,0-2.1-.5-2.1-.5-.4.2-.5,1-.5,1,0,1.6,2.6,1.5,2.6,1.5,2.1,0,3.6-1.1,3.6-2.7v-3.3h0v-2c0-.9-1.5-1.5-2.9-1.5ZM50.8,22.2c0,.2-.3.4-.5.4h-.2c-.8,0-1.3-.6-1.3-1.4v-.3c0-.8.5-1.4,1.3-1.4h.2c.3,0,.5.1.5.4v2.2Z"/>
</svg>