<?xml version="1.0" encoding="UTF-8"?>
<svg id="Calque_1" data-name="Calque 1" xmlns="http://www.w3.org/2000/svg" xmlns:xlink="http://www.w3.org/1999/xlink" version="1.1" viewBox="0 0 68 42">
  <defs>
    <style>
      .cls-1 {
        clip-path: url(#clippath);
      }

      .cls-2 {
        fill: none;
      }

      .cls-2, .cls-3, .cls-4, .cls-5, .cls-6 {
        stroke-width: 0px;
      }

      .cls-3 {
        fill: url(#Dégradé_sans_nom);
      }

      .cls-4 {
        fill: url(#Dégradé_sans_nom_4);
      }

      .cls-5 {
        fill: url(#Dégradé_sans_nom_2);
      }

      .cls-6 {
        fill: url(#Dégradé_sans_nom_3);
        fill-rule: evenodd;
      }
    </style>
    <clipPath id="clippath">
      <rect class="cls-2" x="9" y="12.5" width="51" height="17"/>
    </clipPath>
    <linearGradient id="Dégradé_sans_nom" data-name="Dégradé sans nom" x1="8.7" y1="23" x2="58.5" y2="23" gradientTransform="translate(0 44) scale(1 -1)" gradientUnits="userSpaceOnUse">
      <stop offset="0" stop-color="#232556"/>
      <stop offset="1" stop-color="#30499c"/>
    </linearGradient>
    <linearGradient id="Dégradé_sans_nom_2" data-name="Dégradé sans nom 2" x1="8.7" y1="23" x2="58.5" y2="23" gradientTransform="translate(0 44) scale(1 -1)" gradientUnits="userSpaceOnUse">
      <stop offset="0" stop-color="#232556"/>
      <stop offset="1" stop-color="#30499c"/>
    </linearGradient>
    <linearGradient id="Dégradé_sans_nom_3" data-name="Dégradé sans nom 3" x1="8.7" y1="23" x2="58.5" y2="23" gradientTransform="translate(0 44) scale(1 -1)" gradientUnits="userSpaceOnUse">
      <stop offset="0" stop-color="#232556"/>
      <stop offset="1" stop-color="#30499c"/>
    </linearGradient>
    <linearGradient id="Dégradé_sans_nom_4" data-name="Dégradé sans nom 4" x1="8.7" y1="23" x2="58.5" y2="23" gradientTransform="translate(0 44) scale(1 -1)" gradientUnits="userSpaceOnUse">
      <stop offset="0" stop-color="#232556"/>
      <stop offset="1" stop-color="#30499c"/>
    </linearGradient>
  </defs>
  <g class="cls-1">
    <g>
      <path class="cls-3" d="M42.1,12.5c1.6,0,2.9.4,3.7.7l-.6,3.6-.4-.2c-.7-.3-1.7-.7-3.1-.6-1.6,0-2.3.7-2.4,1.4,0,.8.9,1.3,2.3,2,2.4,1.2,3.5,2.6,3.4,4.5,0,3.4-2.8,5.6-7.1,5.6-1.8,0-3.6-.4-4.6-.9l.6-3.7.5.3c1.3.6,2.2.9,3.8.9s2.4-.5,2.5-1.6c0-.7-.5-1.2-2.1-2-1.6-.8-3.6-2.1-3.6-4.5,0-3.2,2.9-5.4,6.9-5.4Z"/>
      <path class="cls-5" d="M26.6,29.3h4.1l3.4-16.5h-4.1l-3.4,16.5Z"/>
      <path class="cls-6" d="M56.3,12.8h-3.2c-1,0-1.7.3-2.1,1.4l-6.1,15.1h4.3s.7-2,.9-2.5h5.3c.1.6.5,2.5.5,2.5h3.8l-3.3-16.5ZM51.2,23.4c.3-.9,1.6-4.6,1.6-4.6,0,0,0-.1.1-.4.1-.3.3-.8.4-1.2l.3,1.4s.8,3.9.9,4.8h-3.4Z"/>
      <path class="cls-4" d="M16,12.8h-6.9v.6c0,0,.2,0,.2,0,3,.8,4.3,1.2,4.6,2.5,0,0,2.9,11.4,3.4,13.3h4.3l6.7-16.4h-4.3l-4.3,11.2-1.8-9.8c-.2-1.1-1-1.3-1.9-1.4Z"/>
    </g>
  </g>
</svg>